<svg width="400" height="207" viewBox="0 0 400 207" fill="none" xmlns="http://www.w3.org/2000/svg">
<path d="M182.3 4C179.7 1.3 176.3 0 172.4 0H58.7V13.7C58.7 17.4 60 20.6 62.7 23.2C65.4 25.9 68.8 27.3 72.7 27.3H109V165L122.3 165.1C126.2 165.1 129.6 163.7 132.2 161.1C134.9 158.4 136.3 155.1 136.3 151.5V27.4L186.4 27.3V14.6C186.3 11 185 6.8 182.3 4Z" fill="#505071"/>
<path d="M254.5 50.4C250.6 50.4 247.2 51.7 244.6 54.4C241.9 57.1 240.5 60.4 240.5 64V118.9C235.7 132.4 221.1 138.9 205.4 138.9C192.4 138.9 186.1 132.8 186.1 120.4V64C186.1 60.4 184.7 57.2 182 54.4C179.4 51.7 176 50.4 172.1 50.4H158.8V123C158.8 150.9 173 165.1 202.4 165.1C216.9 165.1 232.7 160 240.3 150.1C239.7 158.9 238.7 163.5 233.8 170.1C228.3 177.5 217.5 180.3 206.2 180.3C195.4 180.3 185 178.2 173.6 173.9C171.7 173.4 169.9 173.2 168.4 173.2C162.2 173.2 158.8 176.6 158.8 182.8V194L159.6 194.5C172.6 202.4 187.8 206.4 206.2 206.4C244.4 206.4 267.7 185.5 267.7 144.2V50.4H254.5Z" fill="#505071"/>
<path d="M379.7 114.7C377.7 108.6 375.3 107.7 372.4 105C373.7 103.3 375.3 100.1 377.6 93.3L394.8 50.5H379.2C370.7 50.5 365.2 54 363 60.8L351.3 88.1C350.4 90.4 347.7 91.5 343.3 91.5H317.8L317.9 13.4C317.9 9.8 316.7 6.8 314 4C311.4 1.3 308 0 304.1 0H290.6V165H304C307.9 165 311.3 163.6 314 160.9C316.6 158.3 318 155.1 318 151.4L317.8 119.1H348C352.3 119.1 353.4 121.1 353.9 122.6L367.9 155.3C370 161.8 375.4 165 384 165H399.5L379.7 114.7Z" fill="#505071"/>
<path d="M72.5 79.1C70.9 60.5 55.6 45.9 36.8 45.7H7.2H6.2H0V52V53.9V83.9C0.8 103 16 118.4 35 119.1H65.4H66.4H72.6V112.8V79.2C72.6 79.1 72.5 79.1 72.5 79.1Z" fill="#00D9BA"/>
</svg>
